<mxfile host="app.diagrams.net" agent="Mozilla/5.0 (Windows NT 10.0; Win64; x64) AppleWebKit/537.36 (KHTML, like Gecko) Chrome/138.0.0.0 Safari/537.36" version="28.0.7">
  <diagram name="Page-1" id="VuaUxYK4RbvMLU_jhQQG">
    <mxGraphModel dx="1426" dy="897" grid="1" gridSize="10" guides="1" tooltips="1" connect="1" arrows="1" fold="1" page="1" pageScale="1" pageWidth="827" pageHeight="1169" math="0" shadow="0">
      <root>
        <mxCell id="0" />
        <mxCell id="1" parent="0" />
        <mxCell id="GE9wOrbWjeMqlLtPEyU2-19" style="edgeStyle=orthogonalEdgeStyle;rounded=0;orthogonalLoop=1;jettySize=auto;html=1;exitX=0.5;exitY=1;exitDx=0;exitDy=0;entryX=0.5;entryY=0;entryDx=0;entryDy=0;" edge="1" parent="1" source="GE9wOrbWjeMqlLtPEyU2-1" target="GE9wOrbWjeMqlLtPEyU2-17">
          <mxGeometry relative="1" as="geometry" />
        </mxCell>
        <mxCell id="GE9wOrbWjeMqlLtPEyU2-1" value="Robot Arm" style="rounded=0;whiteSpace=wrap;html=1;" vertex="1" parent="1">
          <mxGeometry x="280" y="170" width="120" height="60" as="geometry" />
        </mxCell>
        <mxCell id="GE9wOrbWjeMqlLtPEyU2-3" style="edgeStyle=orthogonalEdgeStyle;rounded=0;orthogonalLoop=1;jettySize=auto;html=1;" edge="1" parent="1" source="GE9wOrbWjeMqlLtPEyU2-2" target="GE9wOrbWjeMqlLtPEyU2-1">
          <mxGeometry relative="1" as="geometry" />
        </mxCell>
        <mxCell id="GE9wOrbWjeMqlLtPEyU2-2" value="" style="ellipse;whiteSpace=wrap;html=1;" vertex="1" parent="1">
          <mxGeometry x="294" y="40" width="120" height="80" as="geometry" />
        </mxCell>
        <mxCell id="GE9wOrbWjeMqlLtPEyU2-6" value="Move Sample:&lt;div&gt;Initial Position=&amp;gt;Opentrons&lt;/div&gt;&lt;div&gt;&lt;br&gt;&lt;/div&gt;" style="rounded=0;whiteSpace=wrap;html=1;" vertex="1" parent="1">
          <mxGeometry x="400" y="170" width="180" height="60" as="geometry" />
        </mxCell>
        <mxCell id="GE9wOrbWjeMqlLtPEyU2-8" value="Opentrons" style="rounded=0;whiteSpace=wrap;html=1;" vertex="1" parent="1">
          <mxGeometry x="280" y="460" width="120" height="60" as="geometry" />
        </mxCell>
        <mxCell id="GE9wOrbWjeMqlLtPEyU2-9" value="Start Protocol 1&lt;div&gt;&lt;b&gt;startProtcol()&lt;/b&gt;&lt;/div&gt;" style="rounded=0;whiteSpace=wrap;html=1;" vertex="1" parent="1">
          <mxGeometry x="400" y="460" width="180" height="60" as="geometry" />
        </mxCell>
        <mxCell id="GE9wOrbWjeMqlLtPEyU2-15" style="edgeStyle=orthogonalEdgeStyle;rounded=0;orthogonalLoop=1;jettySize=auto;html=1;exitX=0.5;exitY=1;exitDx=0;exitDy=0;" edge="1" parent="1" source="GE9wOrbWjeMqlLtPEyU2-12" target="GE9wOrbWjeMqlLtPEyU2-8">
          <mxGeometry relative="1" as="geometry" />
        </mxCell>
        <mxCell id="GE9wOrbWjeMqlLtPEyU2-12" value="Robot Arm" style="rounded=0;whiteSpace=wrap;html=1;" vertex="1" parent="1">
          <mxGeometry x="280" y="370" width="120" height="60" as="geometry" />
        </mxCell>
        <mxCell id="GE9wOrbWjeMqlLtPEyU2-13" value="Move To Safe Position:&lt;br&gt;&lt;div&gt;&lt;span style=&quot;background-color: transparent;&quot;&gt;&lt;b&gt;run_staining_protocol&lt;/b&gt;&lt;/span&gt;&lt;b&gt;()&lt;/b&gt;&lt;/div&gt;" style="rounded=0;whiteSpace=wrap;html=1;" vertex="1" parent="1">
          <mxGeometry x="400" y="370" width="180" height="60" as="geometry" />
        </mxCell>
        <mxCell id="GE9wOrbWjeMqlLtPEyU2-20" style="edgeStyle=orthogonalEdgeStyle;rounded=0;orthogonalLoop=1;jettySize=auto;html=1;exitX=0.5;exitY=1;exitDx=0;exitDy=0;entryX=0.5;entryY=0;entryDx=0;entryDy=0;" edge="1" parent="1" source="GE9wOrbWjeMqlLtPEyU2-17" target="GE9wOrbWjeMqlLtPEyU2-12">
          <mxGeometry relative="1" as="geometry" />
        </mxCell>
        <mxCell id="GE9wOrbWjeMqlLtPEyU2-17" value="Robot Arm" style="rounded=0;whiteSpace=wrap;html=1;" vertex="1" parent="1">
          <mxGeometry x="280" y="260" width="120" height="60" as="geometry" />
        </mxCell>
        <mxCell id="GE9wOrbWjeMqlLtPEyU2-18" value="Grab Sample:&lt;div&gt;&lt;b&gt;grabSample()&lt;/b&gt;&lt;/div&gt;" style="rounded=0;whiteSpace=wrap;html=1;" vertex="1" parent="1">
          <mxGeometry x="400" y="260" width="180" height="60" as="geometry" />
        </mxCell>
        <mxCell id="GE9wOrbWjeMqlLtPEyU2-21" value="&lt;b style=&quot;forced-color-adjust: none; color: rgb(0, 0, 0); font-family: Helvetica; font-size: 12px; font-style: normal; font-variant-ligatures: normal; font-variant-caps: normal; letter-spacing: normal; orphans: 2; text-align: center; text-indent: 0px; text-transform: none; widows: 2; word-spacing: 0px; -webkit-text-stroke-width: 0px; white-space: normal; background-color: rgb(236, 236, 236); text-decoration-thickness: initial; text-decoration-style: initial; text-decoration-color: initial;&quot;&gt;moveSample(initPosition, finalPosition)&lt;/b&gt;" style="rounded=0;whiteSpace=wrap;html=1;" vertex="1" parent="1">
          <mxGeometry x="580" y="170" width="310" height="60" as="geometry" />
        </mxCell>
        <mxCell id="GE9wOrbWjeMqlLtPEyU2-22" value="This function is executed on the device (e.g. Robot)&lt;div&gt;and exposed to Arkitekt as a service&lt;/div&gt;" style="text;html=1;align=center;verticalAlign=middle;whiteSpace=wrap;rounded=0;" vertex="1" parent="1">
          <mxGeometry x="570" y="130" width="400" height="30" as="geometry" />
        </mxCell>
        <mxCell id="GE9wOrbWjeMqlLtPEyU2-24" value="&lt;b style=&quot;forced-color-adjust: none; color: rgb(0, 0, 0); font-family: Helvetica; font-size: 12px; font-style: normal; font-variant-ligatures: normal; font-variant-caps: normal; letter-spacing: normal; orphans: 2; text-align: center; text-indent: 0px; text-transform: none; widows: 2; word-spacing: 0px; -webkit-text-stroke-width: 0px; white-space: normal; background-color: rgb(236, 236, 236); text-decoration-thickness: initial; text-decoration-style: initial; text-decoration-color: initial;&quot;&gt;moveSample(initPosition, finalPosition)&lt;/b&gt;" style="rounded=0;whiteSpace=wrap;html=1;" vertex="1" parent="1">
          <mxGeometry x="1060" y="170" width="310" height="60" as="geometry" />
        </mxCell>
        <mxCell id="GE9wOrbWjeMqlLtPEyU2-25" value="" style="rounded=0;whiteSpace=wrap;html=1;" vertex="1" parent="1">
          <mxGeometry x="1060" y="230" width="310" height="130" as="geometry" />
        </mxCell>
        <mxCell id="GE9wOrbWjeMqlLtPEyU2-26" value="robotMoveToPosition(initiPosition)&lt;div&gt;robotMoveToPosition(XYZ1)&lt;div&gt;robotMoveToPosition(XYZ2)&lt;/div&gt;&lt;div&gt;robotMoveToPosition(XYZ3)&lt;/div&gt;&lt;div&gt;robotMoveToPosition(finalPosition)&lt;/div&gt;&lt;/div&gt;" style="text;html=1;align=center;verticalAlign=middle;whiteSpace=wrap;rounded=0;" vertex="1" parent="1">
          <mxGeometry x="1140" y="270" width="190" height="70" as="geometry" />
        </mxCell>
        <mxCell id="GE9wOrbWjeMqlLtPEyU2-29" value="" style="shape=flexArrow;endArrow=classic;startArrow=classic;html=1;rounded=0;" edge="1" parent="1">
          <mxGeometry width="100" height="100" relative="1" as="geometry">
            <mxPoint x="900" y="199.5" as="sourcePoint" />
            <mxPoint x="1050" y="199.5" as="targetPoint" />
          </mxGeometry>
        </mxCell>
      </root>
    </mxGraphModel>
  </diagram>
</mxfile>
